<?xml version="1.0" standalone="no"?>
<!DOCTYPE svg PUBLIC "-//W3C//DTD SVG 20010904//EN"
 "http://www.w3.org/TR/2001/REC-SVG-20010904/DTD/svg10.dtd">
<svg version="1.0" xmlns="http://www.w3.org/2000/svg"
 width="1200.000000pt" height="1200.000000pt" viewBox="0 0 1200.000000 1200.000000"
 preserveAspectRatio="xMidYMid meet">
<metadata>
Created by potrace 1.14, written by Peter Selinger 2001-2017
</metadata>
<g transform="translate(0.000000,1200.000000) scale(0.100000,-0.100000)"
fill="#000000" stroke="none">
<path d="M2560 7425 c-255 -42 -501 -168 -677 -347 -95 -96 -138 -151 -197
-251 -88 -150 -145 -314 -166 -480 -15 -123 -14 -1679 2 -1695 18 -18 961 -17
977 1 7 10 11 250 13 814 l3 800 30 49 c17 27 51 63 78 81 152 102 363 5 384
-178 3 -30 10 -60 16 -66 7 -10 117 -13 487 -13 417 0 479 2 490 15 10 12 11
41 6 116 -12 183 -53 327 -142 500 -165 320 -477 559 -834 640 -114 26 -355
34 -470 14z"/>
<path d="M4222 7428 c-19 -19 -17 -1600 2 -1728 71 -470 408 -861 866 -1005
247 -77 558 -70 793 19 303 114 543 325 685 603 105 207 136 336 136 573 1
124 -4 186 -18 250 -84 386 -344 714 -697 879 -160 75 -295 109 -469 118 -94
5 -254 -8 -295 -23 -13 -5 -15 16 -15 148 0 106 -4 158 -12 166 -17 17 -959
17 -976 0z m1366 -1324 c122 -76 158 -235 78 -351 -106 -155 -328 -147 -423
14 -24 41 -28 59 -28 123 1 112 45 183 145 230 65 30 163 23 228 -16z"/>
<path d="M6922 7428 c-17 -17 -17 -2759 0 -2776 17 -17 959 -17 976 0 17 17
17 2759 0 2776 -17 17 -959 17 -976 0z"/>
<path d="M8122 7428 c-17 -17 -17 -959 0 -976 9 -9 89 -12 297 -12 207 -1 296
-4 322 -14 54 -19 107 -64 137 -115 l27 -46 3 -799 c2 -563 6 -803 13 -813 16
-18 959 -19 977 -1 9 9 12 200 12 798 1 630 4 792 14 823 20 55 61 103 114
134 l47 28 350 3 c230 2 354 7 362 14 18 15 19 958 1 976 -19 19 -703 16 -831
-3 -173 -26 -349 -94 -491 -189 l-69 -46 -71 46 c-149 95 -329 164 -493 189
-127 19 -702 22 -721 3z"/>
</g>
</svg>
